<svg width="83" height="27" viewBox="0 0 83 27" fill="none" xmlns="http://www.w3.org/2000/svg">
<path d="M0 0V27H6.01206V0H0Z" fill="#2A524C"/>
<path d="M24.007 27L33.0825 0H26.879L20.7137 18.9832H20.6371L14.5485 0H8.38326L17.229 27H24.007Z" fill="#2A524C"/>
<path d="M40.5491 16.563L44.1104 6.65546H44.187L47.6334 16.563H40.5491ZM41.1235 0L30.7843 27H36.8346L38.9791 20.9874H49.2034L51.2712 27H57.5131L47.2887 0H41.1235Z" fill="#2A524C"/>
<path d="M66.5721 12.8571L57.0371 27H63.7767L69.8654 17.6597L75.8391 27H83L73.4649 12.895L82.2341 0H75.6477L70.0951 8.62185L64.7341 0H57.7647L66.5721 12.8571Z" fill="#2A524C"/>
</svg>
